<?xml version="1.0" encoding="UTF-8" standalone="no"?>
<svg width="254px" height="60px" viewBox="0 0 254 60" version="1.1" xmlns="http://www.w3.org/2000/svg" xmlns:xlink="http://www.w3.org/1999/xlink">
    <!-- Generator: Sketch 46.2 (44496) - http://www.bohemiancoding.com/sketch -->
    <title>WSFG Logo</title>
    <desc>Created with Sketch.</desc>
    <defs></defs>
    <g id="Symbols" stroke="none" stroke-width="1" fill="none" fill-rule="evenodd">
        <g id="Desktop-Footer" transform="translate(-1042.000000, -642.000000)" fill="#484848">
            <g id="Bottom">
                <g transform="translate(0.000000, 610.000000)">
                    <g id="WSFG-Logo" transform="translate(1042.000000, 32.000000)">
                        <path d="M4.38729203,18.8487728 C2.93941575,22.2275583 2.1794,25.8973869 2.1794,29.6841 C2.1794,44.8481 14.5174,57.1861 29.6824,57.1861 C44.8484,57.1861 57.1884,44.8481 57.1884,29.6841 C57.1884,22.3371 54.3264,15.4281 49.1334,10.2351 C43.9374,5.0401 37.0304,2.1811 29.6824,2.1811 C22.3374,2.1811 15.4304,5.0401 10.2354,10.2351 C8.15042201,12.320078 6.44139627,14.6808187 5.14239172,17.2350914 L12.4792,17.2475 L12.4792,17.9315 C10.8322,17.9315 10.0102,18.3355 10.0102,19.5035 C10.0102,19.8675 10.1012,20.2295 10.2832,20.8355 L15.4072,36.9105 L15.5002,36.9105 L19.2962,25.5885 L17.6492,20.4715 C17.0992,18.7785 16.2772,18.0935 14.4012,17.9315 L14.4012,17.2475 L25.7992,17.2475 L25.7992,17.9315 C23.4652,17.9315 22.4602,18.3745 22.4602,19.7865 C22.4602,20.1495 22.5522,20.5505 22.6872,21.0365 L27.5832,36.7485 L27.6752,36.7485 L32.4782,21.7205 C32.7532,20.9145 32.8422,20.3525 32.8422,19.9075 C32.8422,18.6195 31.8832,17.8945 29.6402,17.9315 L29.6402,17.2475 L37.9702,17.2475 L37.9702,17.5045 C36.3412,18.1785 35.0312,20.0185 34.4752,21.6245 L26.6212,45.3315 L25.4712,45.3315 L20.2112,28.4085 L20.1192,28.4085 L14.4012,45.3315 L13.3882,45.3315 L5.4732,21.0365 C5.14232642,20.0315332 4.81030967,19.3298911 4.38729203,18.8487728 Z M8.6944,8.6931 C14.3014,3.0871 21.7544,0.0001 29.6824,0.0001 C37.6124,0.0001 45.0684,3.0871 50.6744,8.6931 C56.2784,14.2991 59.3664,21.7531 59.3664,29.6841 C59.3664,46.0511 46.0504,59.3671 29.6824,59.3671 C13.3164,59.3671 0.0004,46.0511 0.0004,29.6841 C0.0004,21.7551 3.0874,14.3011 8.6944,8.6931 Z M39.6662,22.0515 C39.6662,28.9185 53.6312,28.2285 53.6312,38.0295 C53.6312,42.2465 49.9372,45.4995 45.1622,45.4995 C42.9032,45.4995 40.4782,44.8895 38.3812,43.7355 C37.1982,44.8765 35.1562,45.4945 34.2142,45.4875 C32.0982,45.4715 30.5512,44.1755 30.4372,42.2965 C30.3552,40.9685 31.0192,39.5745 33.4172,38.2325 C33.0502,37.2235 32.7742,36.0875 32.8952,34.8905 C33.0812,33.0365 34.2212,31.9635 36.1822,31.9635 C37.9372,31.9635 38.9262,32.8385 39.0092,34.2075 C39.0902,35.5005 38.4492,36.6945 35.9152,37.7765 C36.6262,39.2925 37.7782,40.6425 39.1132,41.6935 C39.8442,40.7265 39.9352,40.1185 39.8752,39.4835 C39.8222,38.9045 39.4052,38.5965 38.4812,38.5415 L38.4522,38.0865 L43.7332,38.1115 L43.7642,38.5645 C43.3882,38.5545 42.8772,38.7475 42.6082,38.9035 C41.7712,39.3835 41.5662,40.5345 39.9022,42.2675 C41.5052,43.3345 43.2802,43.9735 44.8452,43.9735 C47.5932,43.9735 49.5862,42.1575 49.5862,39.6725 C49.5862,32.7065 36.1972,32.9095 36.1972,23.7785 C36.1972,19.7235 39.2592,16.9125 43.6762,16.9125 C47.0532,16.9125 48.8122,18.2795 49.7582,18.2795 C50.5222,18.2795 51.1072,17.7975 51.3772,16.9125 L52.1452,16.9125 L52.1452,25.8645 L51.3772,25.8645 C51.1072,20.5275 46.9182,18.4405 44.1262,18.4405 C41.5582,18.4405 39.6662,20.0045 39.6662,22.0515 Z M35.3432,44.0975 C35.9862,44.0975 36.8002,43.7995 37.5592,43.2405 C35.9172,42.1675 34.5412,40.7325 33.7132,38.9545 C32.7122,39.6855 32.3822,40.3455 32.4332,41.2015 C32.5222,42.6685 33.9502,44.0975 35.3432,44.0975 Z M36.4942,32.8415 C35.4802,32.8415 35.2342,33.8825 35.1632,34.2465 C35.1262,35.1855 35.2832,36.1005 35.5892,36.9725 L35.7352,36.9515 C37.3232,36.0175 37.7882,35.2985 37.7132,34.0675 C37.6842,33.5925 37.1822,32.8415 36.4942,32.8415 Z M84.7153,10.8302 L84.7153,11.2712 C84.3043,11.2712 83.9713,11.3442 83.7153,11.4912 C83.4603,11.6382 83.2153,11.9142 82.9823,12.3162 C82.8273,12.5882 82.5833,13.2372 82.2503,14.2562 L77.8603,26.9682 L77.3943,26.9682 L73.8053,16.9002 L70.2343,26.9682 L69.8153,26.9682 L65.1313,13.8752 C64.7813,12.8972 64.5613,12.3212 64.4683,12.1442 C64.3133,11.8462 64.1013,11.6292 63.8353,11.4842 C63.5663,11.3432 63.2043,11.2712 62.7473,11.2712 L62.7473,10.8302 L68.5783,10.8302 L68.5783,11.2712 L68.2993,11.2712 C67.8883,11.2712 67.5743,11.3632 67.3583,11.5502 C67.1403,11.7372 67.0313,11.9622 67.0313,12.2262 C67.0313,12.4982 67.2023,13.1242 67.5433,14.1042 L70.6523,22.9562 L73.2823,15.4322 L72.8063,14.0992 L72.4343,13.0382 C72.2693,12.6522 72.0883,12.3102 71.8873,12.0132 C71.7853,11.8672 71.6613,11.7432 71.5133,11.6412 C71.3193,11.5012 71.1263,11.4022 70.9303,11.3402 C70.7843,11.2922 70.5503,11.2712 70.2323,11.2712 L70.2323,10.8302 L76.3723,10.8302 L76.3723,11.2712 L75.9533,11.2712 C75.5193,11.2712 75.2013,11.3632 74.9993,11.5502 C74.7983,11.7352 74.6983,11.9872 74.6983,12.3052 C74.6983,12.7012 74.8713,13.3912 75.2203,14.3772 L78.2433,22.9472 L81.2443,14.2612 C81.5853,13.3002 81.7563,12.6312 81.7563,12.2582 C81.7563,12.0792 81.6993,11.9142 81.5863,11.7572 C81.4753,11.6032 81.3323,11.4952 81.1633,11.4332 C80.8673,11.3242 80.4843,11.2712 80.0113,11.2712 L80.0113,10.8302 L84.7153,10.8302 Z M84.4867,19.9854 C84.4787,21.5604 84.8617,22.7944 85.6367,23.6904 C86.4127,24.5874 87.3227,25.0354 88.3677,25.0354 C89.0647,25.0354 89.6717,24.8434 90.1867,24.4624 C90.7017,24.0824 91.1337,23.4224 91.4827,22.4854 L91.8397,22.7194 C91.6767,23.7884 91.2047,24.7584 90.4207,25.6294 C89.6387,26.4984 88.6587,26.9334 87.4797,26.9334 C86.2017,26.9334 85.1077,26.4344 84.1967,25.4404 C83.2857,24.4424 82.8307,23.1064 82.8307,21.4264 C82.8307,19.6034 83.2977,18.1844 84.2317,17.1664 C85.1647,16.1454 86.3367,15.6364 87.7477,15.6364 C88.9417,15.6364 89.9207,16.0314 90.6887,16.8184 C91.4557,17.6094 91.8397,18.6654 91.8397,19.9854 L84.4867,19.9854 Z M84.4867,19.3054 L89.4217,19.3054 C89.3817,18.6224 89.3007,18.1404 89.1757,17.8604 C88.9817,17.4274 88.6927,17.0844 88.3097,16.8374 C87.9257,16.5884 87.5237,16.4634 87.1047,16.4634 C86.4607,16.4634 85.8837,16.7154 85.3767,17.2154 C84.8677,17.7174 84.5717,18.4124 84.4867,19.3054 Z M100.1657,15.6366 L100.1657,19.2566 L99.7767,19.2566 C99.4817,18.1176 99.1057,17.3436 98.6427,16.9326 C98.1827,16.5226 97.5957,16.3176 96.8817,16.3176 C96.3397,16.3176 95.9027,16.4636 95.5687,16.7486 C95.2357,17.0366 95.0687,17.3546 95.0687,17.7046 C95.0687,18.1406 95.1917,18.5106 95.4377,18.8216 C95.6767,19.1386 96.1637,19.4786 96.8997,19.8356 L98.5987,20.6626 C100.1737,21.4316 100.9607,22.4426 100.9607,23.7006 C100.9607,24.6686 100.5957,25.4506 99.8627,26.0446 C99.1307,26.6356 98.3107,26.9336 97.4047,26.9336 C96.7537,26.9336 96.0107,26.8166 95.1737,26.5816 C94.9177,26.5006 94.7077,26.4626 94.5467,26.4626 C94.3677,26.4626 94.2277,26.5666 94.1277,26.7716 L93.7377,26.7716 L93.7377,22.9746 L94.1277,22.9746 C94.3447,24.0576 94.7577,24.8766 95.3707,25.4266 C95.9827,25.9776 96.6687,26.2526 97.4267,26.2526 C97.9627,26.2526 98.3977,26.0956 98.7347,25.7796 C99.0717,25.4656 99.2407,25.0866 99.2407,24.6436 C99.2407,24.1096 99.0527,23.6586 98.6767,23.2926 C98.3007,22.9256 97.5487,22.4656 96.4237,21.9066 C95.2987,21.3456 94.5627,20.8436 94.2137,20.3926 C93.8637,19.9516 93.6897,19.3926 93.6897,18.7166 C93.6897,17.8436 93.9897,17.1106 94.5917,16.5186 C95.1927,15.9306 95.9707,15.6366 96.9247,15.6366 C97.3437,15.6366 97.8517,15.7236 98.4497,15.9026 C98.8457,16.0166 99.1087,16.0756 99.2407,16.0756 C99.3657,16.0756 99.4617,16.0476 99.5317,15.9936 C99.6007,15.9396 99.6827,15.8216 99.7767,15.6366 L100.1657,15.6366 Z M105.6314,12.4387 L105.6314,15.9447 L108.1204,15.9447 L108.1204,16.7557 L105.6314,16.7557 L105.6314,23.6797 C105.6314,24.3727 105.7324,24.8387 105.9284,25.0807 C106.1284,25.3197 106.3834,25.4407 106.6934,25.4407 C106.9514,25.4407 107.2004,25.3617 107.4414,25.2017 C107.6834,25.0437 107.8684,24.8097 108.0024,24.4987 L108.4564,24.4987 C108.1834,25.2577 107.7984,25.8287 107.2994,26.2127 C106.8004,26.5977 106.2864,26.7877 105.7564,26.7877 C105.3984,26.7877 105.0474,26.6887 104.7044,26.4907 C104.3614,26.2947 104.1094,26.0087 103.9454,25.6407 C103.7814,25.2707 103.7004,24.7007 103.7004,23.9337 L103.7004,16.7557 L102.0124,16.7557 L102.0124,16.3737 C102.4394,16.2037 102.8764,15.9147 103.3234,15.5077 C103.7704,15.1007 104.1704,14.6177 104.5224,14.0577 C104.7044,13.7627 104.9544,13.2227 105.2754,12.4387 L105.6314,12.4387 Z M110.9318,19.9854 C110.9238,21.5604 111.3058,22.7944 112.0818,23.6904 C112.8548,24.5874 113.7668,25.0354 114.8128,25.0354 C115.5108,25.0354 116.1178,24.8434 116.6318,24.4624 C117.1468,24.0824 117.5788,23.4224 117.9268,22.4854 L118.2848,22.7194 C118.1218,23.7884 117.6488,24.7584 116.8658,25.6294 C116.0838,26.4984 115.1028,26.9334 113.9258,26.9334 C112.6458,26.9334 111.5518,26.4344 110.6408,25.4404 C109.7308,24.4424 109.2748,23.1064 109.2748,21.4264 C109.2748,19.6034 109.7418,18.1844 110.6758,17.1664 C111.6108,16.1454 112.7828,15.6364 114.1918,15.6364 C115.3858,15.6364 116.3658,16.0314 117.1338,16.8184 C117.9008,17.6094 118.2848,18.6654 118.2848,19.9854 L110.9318,19.9854 Z M110.9318,19.3054 L115.8658,19.3054 C115.8268,18.6224 115.7468,18.1404 115.6218,17.8604 C115.4268,17.4274 115.1368,17.0844 114.7548,16.8374 C114.3698,16.5884 113.9698,16.4634 113.5498,16.4634 C112.9048,16.4634 112.3298,16.7154 111.8208,17.2154 C111.3138,17.7174 111.0168,18.4124 110.9318,19.3054 Z M122.8454,15.6366 L122.8454,18.0306 C123.7324,16.4336 124.6434,15.6366 125.5774,15.6366 C126.0014,15.6366 126.3544,15.7666 126.6324,16.0266 C126.9104,16.2836 127.0484,16.5846 127.0484,16.9246 C127.0484,17.2276 126.9484,17.4856 126.7474,17.6926 C126.5474,17.9026 126.3084,18.0066 126.0324,18.0066 C125.7614,18.0066 125.4594,17.8746 125.1214,17.6096 C124.7864,17.3436 124.5364,17.2116 124.3744,17.2116 C124.2364,17.2116 124.0844,17.2886 123.9214,17.4416 C123.5734,17.7596 123.2154,18.2816 122.8454,19.0066 L122.8454,24.1256 C122.8454,24.7136 122.9194,25.1566 123.0664,25.4556 C123.1674,25.6676 123.3464,25.8406 123.6034,25.9786 C123.8594,26.1186 124.2284,26.1866 124.7124,26.1866 L124.7124,26.6086 L119.2414,26.6086 L119.2414,26.1866 C119.7824,26.1866 120.1854,26.1026 120.4484,25.9316 C120.6404,25.8066 120.7764,25.6086 120.8544,25.3376 C120.8934,25.2046 120.9124,24.8276 120.9124,24.2066 L120.9124,20.0676 C120.9124,18.8316 120.8884,18.0966 120.8374,17.8606 C120.7864,17.6266 120.6944,17.4526 120.5594,17.3446 C120.4234,17.2376 120.2554,17.1826 120.0554,17.1826 C119.8144,17.1826 119.5444,17.2406 119.2434,17.3576 L119.1274,16.9346 L122.3544,15.6366 L122.8454,15.6366 Z M131.7949,17.8917 C133.0409,16.3877 134.2279,15.6367 135.3579,15.6367 C135.9389,15.6367 136.4369,15.7817 136.8549,16.0737 C137.2729,16.3647 137.6059,16.8427 137.8549,17.5107 C138.0229,17.9777 138.1089,18.6907 138.1089,19.6537 L138.1089,24.2057 C138.1089,24.8787 138.1639,25.3337 138.2719,25.5747 C138.3559,25.7667 138.4939,25.9177 138.6819,26.0237 C138.8709,26.1337 139.2229,26.1867 139.7319,26.1867 L139.7319,26.6087 L134.4569,26.6087 L134.4569,26.1867 L134.6779,26.1867 C135.1739,26.1867 135.5209,26.1117 135.7189,25.9627 C135.9159,25.8117 136.0539,25.5897 136.1309,25.2947 C136.1619,25.1807 136.1779,24.8177 136.1779,24.2057 L136.1779,19.8367 C136.1779,18.8667 136.0519,18.1617 135.8009,17.7237 C135.5519,17.2837 135.1299,17.0657 134.5359,17.0657 C133.6179,17.0657 132.7039,17.5687 131.7949,18.5767 L131.7949,24.2057 C131.7949,24.9257 131.8389,25.3687 131.9229,25.5387 C132.0309,25.7637 132.1809,25.9257 132.3709,26.0307 C132.5609,26.1347 132.9479,26.1867 133.5299,26.1867 L133.5299,26.6087 L128.2399,26.6087 L128.2399,26.1867 L128.4729,26.1867 C129.0179,26.1867 129.3869,26.0497 129.5779,25.7767 C129.7689,25.5017 129.8629,24.9787 129.8629,24.2057 L129.8629,20.2297 C129.8629,18.9567 129.8339,18.1787 129.7749,17.9017 C129.7189,17.6217 129.6279,17.4347 129.5089,17.3337 C129.3899,17.2327 129.2299,17.1827 129.0289,17.1827 C128.8119,17.1827 128.5529,17.2407 128.2519,17.3567 L128.0779,16.9347 L131.2939,15.6367 L131.7949,15.6367 L131.7949,17.8917 Z M156.9218,16.4495 L161.8068,16.4495 L161.8068,16.8855 C161.1328,16.9405 160.6358,17.0905 160.3118,17.3335 C159.9898,17.5795 159.4858,18.3175 158.7988,19.5515 C158.1128,20.7845 157.3388,21.9345 156.4808,23.0045 C157.1698,23.8125 157.7868,24.3765 158.3298,24.6985 C158.8728,25.0205 159.4208,25.1805 159.9728,25.1805 C160.5068,25.1805 160.9618,25.0355 161.3328,24.7435 C161.7068,24.4555 161.9688,24.0275 162.1248,23.4585 L162.5548,23.7735 C162.2658,24.8675 161.8068,25.6715 161.1698,26.1895 C160.5318,26.7085 159.7938,26.9685 158.9478,26.9685 C158.3118,26.9685 157.6658,26.7965 157.0098,26.4515 C156.3548,26.1065 155.6388,25.5225 154.8648,24.7035 C153.9038,25.5555 153.0368,26.1465 152.2658,26.4735 C151.4948,26.8005 150.6728,26.9685 149.7978,26.9685 C148.5178,26.9685 147.5028,26.6265 146.7508,25.9435 C145.9988,25.2605 145.6238,24.4465 145.6238,23.4995 C145.6238,22.5615 145.9618,21.6235 146.6368,20.6915 C147.3128,19.7545 148.5808,18.7895 150.4448,17.7875 C150.0798,16.9815 149.8308,16.3205 149.7008,15.8045 C149.5688,15.2885 149.5048,14.7965 149.5048,14.3245 C149.5048,12.9975 149.9908,11.9835 150.9698,11.2875 C151.7298,10.7465 152.5928,10.4745 153.5638,10.4745 C154.4858,10.4745 155.2398,10.7465 155.8218,11.2955 C156.4028,11.8395 156.6938,12.5125 156.6938,13.3095 C156.6938,14.1295 156.4128,14.8505 155.8488,15.4705 C155.2878,16.0905 154.2898,16.7685 152.8638,17.5025 C153.8498,19.2565 154.8718,20.8635 155.9318,22.3275 C157.3138,20.6995 158.0038,19.3255 158.0038,18.2115 C158.0038,17.8535 157.8868,17.5365 157.6548,17.2565 C157.4828,17.0485 157.2388,16.9245 156.9218,16.8855 L156.9218,16.4495 Z M152.4688,16.7485 C153.4308,16.2925 154.1518,15.7735 154.6308,15.1905 C155.1068,14.6105 155.3478,13.9635 155.3478,13.2495 C155.3478,12.6895 155.1738,12.2295 154.8298,11.8655 C154.4858,11.5015 154.0558,11.3185 153.5448,11.3185 C152.8708,11.3185 152.3628,11.5525 152.0168,12.0245 C151.6718,12.4905 151.4998,12.9505 151.4998,13.4005 C151.4998,13.7805 151.5658,14.2035 151.6958,14.6735 C151.8248,15.1435 152.0818,15.8345 152.4688,16.7485 Z M154.2598,24.0275 C153.2388,22.6325 152.5318,21.6085 152.1378,20.9665 C151.7428,20.3225 151.3108,19.5205 150.8398,18.5675 C149.9078,19.1015 149.2028,19.6915 148.7328,20.3355 C148.2618,20.9765 148.0278,21.6745 148.0278,22.4265 C148.0278,23.2545 148.2938,23.9835 148.8288,24.6125 C149.3638,25.2405 150.0838,25.5535 150.9908,25.5535 C151.4788,25.5535 151.9508,25.4555 152.4048,25.2655 C152.8558,25.0715 153.4758,24.6605 154.2598,24.0275 Z M179.6208,10.4743 L179.6208,15.9283 L179.1808,15.9283 C179.0418,14.8803 178.7928,14.0473 178.4318,13.4263 C178.0728,12.8043 177.5618,12.3113 176.8948,11.9473 C176.2288,11.5823 175.5378,11.4013 174.8268,11.4013 C174.0218,11.4013 173.3568,11.6463 172.8318,12.1383 C172.3048,12.6313 172.0398,13.1903 172.0398,13.8193 C172.0398,14.3003 172.2048,14.7393 172.5398,15.1363 C173.0208,15.7153 174.1618,16.4913 175.9718,17.4603 C177.4418,18.2513 178.4498,18.8583 178.9888,19.2823 C179.5308,19.7023 179.9458,20.2033 180.2378,20.7753 C180.5308,21.3513 180.6768,21.9523 180.6768,22.5783 C180.6768,23.7743 180.2098,24.8033 179.2868,25.6683 C178.3628,26.5343 177.1698,26.9683 175.7148,26.9683 C175.2568,26.9683 174.8268,26.9303 174.4248,26.8593 C174.1848,26.8193 173.6878,26.6783 172.9338,26.4303 C172.1798,26.1803 171.6998,26.0563 171.4978,26.0563 C171.3048,26.0563 171.1508,26.1163 171.0388,26.2353 C170.9278,26.3533 170.8438,26.5973 170.7908,26.9683 L170.3528,26.9683 L170.3528,21.5603 L170.7908,21.5603 C170.9918,22.6933 171.2618,23.5393 171.6018,24.0993 C171.9428,24.6603 172.4608,25.1293 173.1618,25.5003 C173.8628,25.8723 174.6288,26.0563 175.4658,26.0563 C176.4308,26.0563 177.1978,25.8013 177.7558,25.2903 C178.3178,24.7773 178.5978,24.1713 178.5978,23.4713 C178.5978,23.0843 178.4908,22.6933 178.2788,22.2963 C178.0648,21.9003 177.7348,21.5313 177.2848,21.1923 C176.9848,20.9593 176.1578,20.4653 174.8088,19.7103 C173.4598,18.9533 172.4978,18.3513 171.9278,17.9023 C171.3588,17.4533 170.9258,16.9573 170.6308,16.4143 C170.3368,15.8713 170.1878,15.2753 170.1878,14.6243 C170.1878,13.4933 170.6228,12.5173 171.4918,11.7013 C172.3578,10.8843 173.4618,10.4743 174.8008,10.4743 C175.6408,10.4743 176.5258,10.6793 177.4628,11.0923 C177.8968,11.2873 178.2038,11.3853 178.3798,11.3853 C178.5828,11.3853 178.7458,11.3243 178.8748,11.2033 C179.0028,11.0833 179.1048,10.8393 179.1808,10.4743 L179.6208,10.4743 Z M187.3594,15.6368 C188.9724,15.6368 190.2654,16.2488 191.2414,17.4738 C192.0714,18.5218 192.4854,19.7238 192.4854,21.0818 C192.4854,22.0368 192.2574,23.0008 191.8014,23.9788 C191.3424,24.9548 190.7134,25.6928 189.9114,26.1898 C189.1104,26.6838 188.2174,26.9338 187.2314,26.9338 C185.6294,26.9338 184.3534,26.2948 183.4114,25.0128 C182.6114,23.9368 182.2104,22.7248 182.2104,21.3848 C182.2104,20.4058 182.4544,19.4348 182.9384,18.4708 C183.4224,17.5028 184.0574,16.7898 184.8504,16.3288 C185.6404,15.8668 186.4754,15.6368 187.3594,15.6368 Z M187.0004,16.3998 C186.5894,16.3998 186.1754,16.5218 185.7614,16.7668 C185.3464,17.0098 185.0074,17.4388 184.7534,18.0508 C184.4994,18.6618 184.3714,19.4478 184.3714,20.4098 C184.3714,21.9618 184.6794,23.2978 185.2944,24.4198 C185.9144,25.5438 186.7254,26.1058 187.7334,26.1058 C188.4854,26.1058 189.1054,25.7958 189.5934,25.1758 C190.0844,24.5538 190.3274,23.4908 190.3274,21.9788 C190.3274,20.0888 189.9214,18.6008 189.1054,17.5158 C188.5554,16.7718 187.8534,16.3998 187.0004,16.3998 Z M202.8802,15.945 L202.8802,22.423 C202.8802,23.649 202.9082,24.401 202.9692,24.676 C203.0252,24.95 203.1172,25.141 203.2462,25.25 C203.3732,25.356 203.5202,25.411 203.6912,25.411 C203.9312,25.411 204.2032,25.345 204.5042,25.213 L204.6652,25.636 L201.4862,26.934 L200.9652,26.934 L200.9652,24.68 C200.0482,25.671 199.3492,26.295 198.8672,26.549 C198.3872,26.807 197.8782,26.934 197.3422,26.934 C196.7442,26.934 196.2242,26.761 195.7882,26.417 C195.3502,26.072 195.0442,25.63 194.8752,25.084 C194.7012,24.541 194.6162,23.773 194.6162,22.781 L194.6162,18.023 C194.6162,17.514 194.5642,17.162 194.4532,16.965 C194.3472,16.77 194.1862,16.62 193.9722,16.514 C193.7572,16.408 193.3732,16.36 192.8162,16.367 L192.8162,15.945 L196.5502,15.945 L196.5502,23.084 C196.5502,24.076 196.7212,24.728 197.0672,25.04 C197.4132,25.351 197.8302,25.507 198.3212,25.507 C198.6542,25.507 199.0312,25.401 199.4562,25.192 C199.8802,24.982 200.3812,24.581 200.9652,23.993 L200.9652,17.941 C200.9652,17.335 200.8522,16.925 200.6292,16.711 C200.4082,16.498 199.9462,16.383 199.2432,16.367 L199.2432,15.945 L202.8802,15.945 Z M208.5506,12.4387 L208.5506,15.9447 L211.0376,15.9447 L211.0376,16.7557 L208.5506,16.7557 L208.5506,23.6797 C208.5506,24.3727 208.6486,24.8387 208.8476,25.0807 C209.0466,25.3197 209.3016,25.4407 209.6106,25.4407 C209.8666,25.4407 210.1176,25.3617 210.3596,25.2017 C210.5996,25.0437 210.7866,24.8097 210.9206,24.4987 L211.3746,24.4987 C211.1016,25.2577 210.7146,25.8287 210.2166,26.2127 C209.7206,26.5977 209.2036,26.7877 208.6756,26.7877 C208.3176,26.7877 207.9656,26.6887 207.6226,26.4907 C207.2796,26.2947 207.0276,26.0087 206.8626,25.6407 C206.6976,25.2707 206.6176,24.7007 206.6176,23.9337 L206.6176,16.7557 L204.9306,16.7557 L204.9306,16.3737 C205.3556,16.2037 205.7956,15.9147 206.2416,15.5077 C206.6876,15.1007 207.0896,14.6177 207.4406,14.0577 C207.6206,13.7627 207.8716,13.2227 208.1936,12.4387 L208.5506,12.4387 Z M215.1967,10.0685 L215.1967,17.8605 C216.0567,16.9145 216.7377,16.3065 217.2397,16.0395 C217.7447,15.7705 218.2487,15.6365 218.7517,15.6365 C219.3577,15.6365 219.8757,15.8045 220.3087,16.1375 C220.7417,16.4715 221.0637,16.9945 221.2747,17.7075 C221.4197,18.2065 221.4947,19.1145 221.4947,20.4335 L221.4947,24.2065 C221.4947,24.8785 221.5477,25.3375 221.6557,25.5845 C221.7337,25.7725 221.8627,25.9175 222.0517,26.0245 C222.2347,26.1335 222.5747,26.1865 223.0677,26.1865 L223.0677,26.6085 L217.8427,26.6085 L217.8427,26.1865 L218.0867,26.1865 C218.5817,26.1865 218.9267,26.1115 219.1207,25.9625 C219.3157,25.8115 219.4497,25.5895 219.5277,25.2945 C219.5507,25.1725 219.5607,24.8105 219.5607,24.2065 L219.5607,20.4355 C219.5607,19.2715 219.5027,18.5075 219.3837,18.1425 C219.2627,17.7795 219.0727,17.5045 218.8087,17.3225 C218.5447,17.1395 218.2277,17.0485 217.8547,17.0485 C217.4747,17.0485 217.0817,17.1495 216.6697,17.3525 C216.2607,17.5525 215.7687,17.9605 215.1967,18.5725 L215.1967,24.2065 C215.1967,24.9325 215.2347,25.3845 215.3187,25.5615 C215.4007,25.7405 215.5497,25.8885 215.7697,26.0075 C215.9917,26.1275 216.3737,26.1865 216.9157,26.1865 L216.9157,26.6085 L211.6417,26.6085 L211.6417,26.1865 C212.1127,26.1865 212.4837,26.1135 212.7547,25.9685 C212.9097,25.8905 213.0327,25.7435 213.1247,25.5285 C213.2157,25.3105 213.2657,24.8705 213.2657,24.2065 L213.2657,14.5485 C213.2657,13.3405 213.2337,12.5965 213.1777,12.3215 C213.1177,12.0425 213.0307,11.8545 212.9117,11.7535 C212.7897,11.6525 212.6297,11.6035 212.4287,11.6035 C212.2657,11.6035 212.0057,11.6655 211.6417,11.7895 L211.4777,11.3665 L214.6617,10.0685 L215.1967,10.0685 Z M224.7122,19.9854 C224.7042,21.5604 225.0892,22.7944 225.8642,23.6904 C226.6392,24.5874 227.5482,25.0354 228.5962,25.0354 C229.2922,25.0354 229.8982,24.8434 230.4132,24.4624 C230.9292,24.0824 231.3592,23.4224 231.7092,22.4854 L232.0672,22.7194 C231.9042,23.7884 231.4312,24.7584 230.6472,25.6294 C229.8652,26.4984 228.8852,26.9334 227.7072,26.9334 C226.4282,26.9334 225.3342,26.4344 224.4232,25.4404 C223.5122,24.4424 223.0582,23.1064 223.0582,21.4264 C223.0582,19.6034 223.5242,18.1844 224.4562,17.1664 C225.3922,16.1454 226.5642,15.6364 227.9732,15.6364 C229.1682,15.6364 230.1472,16.0314 230.9142,16.8184 C231.6832,17.6094 232.0672,18.6654 232.0672,19.9854 L224.7122,19.9854 Z M224.7122,19.3054 L229.6472,19.3054 C229.6082,18.6224 229.5272,18.1404 229.4022,17.8604 C229.2102,17.4274 228.9202,17.0844 228.5352,16.8374 C228.1532,16.5884 227.7502,16.4634 227.3332,16.4634 C226.6872,16.4634 226.1122,16.7154 225.6022,17.2154 C225.0942,17.7174 224.7972,18.4124 224.7122,19.3054 Z M236.6261,15.6366 L236.6261,18.0306 C237.5151,16.4336 238.4251,15.6366 239.3591,15.6366 C239.7851,15.6366 240.1361,15.7666 240.4131,16.0266 C240.6921,16.2836 240.8301,16.5846 240.8301,16.9246 C240.8301,17.2276 240.7321,17.4856 240.5321,17.6926 C240.3311,17.9026 240.0901,18.0066 239.8131,18.0066 C239.5431,18.0066 239.2421,17.8746 238.9041,17.6096 C238.5671,17.3436 238.3191,17.2116 238.1571,17.2116 C238.0191,17.2116 237.8671,17.2886 237.7051,17.4416 C237.3571,17.7596 236.9981,18.2816 236.6261,19.0066 L236.6261,24.1256 C236.6261,24.7136 236.7001,25.1566 236.8471,25.4556 C236.9501,25.6676 237.1281,25.8406 237.3841,25.9786 C237.6421,26.1186 238.0081,26.1866 238.4931,26.1866 L238.4931,26.6086 L233.0231,26.6086 L233.0231,26.1866 C233.5641,26.1866 233.9661,26.1026 234.2321,25.9316 C234.4231,25.8066 234.5591,25.6086 234.6371,25.3376 C234.6741,25.2046 234.6951,24.8276 234.6951,24.2066 L234.6951,20.0676 C234.6951,18.8316 234.6681,18.0966 234.6181,17.8606 C234.5701,17.6266 234.4751,17.4526 234.3401,17.3446 C234.2061,17.2376 234.0371,17.1826 233.8371,17.1826 C233.5971,17.1826 233.3281,17.2406 233.0251,17.3576 L232.9101,16.9346 L236.1371,15.6366 L236.6261,15.6366 Z M245.5797,17.8917 C246.8237,16.3877 248.0097,15.6367 249.1397,15.6367 C249.7207,15.6367 250.2197,15.7817 250.6377,16.0737 C251.0557,16.3647 251.3897,16.8427 251.6357,17.5107 C251.8077,17.9777 251.8937,18.6907 251.8937,19.6537 L251.8937,24.2057 C251.8937,24.8787 251.9427,25.3337 252.0527,25.5747 C252.1377,25.7667 252.2757,25.9177 252.4637,26.0237 C252.6527,26.1337 253.0047,26.1867 253.5157,26.1867 L253.5157,26.6087 L248.2387,26.6087 L248.2387,26.1867 L248.4607,26.1867 C248.9547,26.1867 249.3037,26.1117 249.5007,25.9627 C249.6987,25.8117 249.8367,25.5897 249.9137,25.2947 C249.9447,25.1807 249.9587,24.8177 249.9587,24.2057 L249.9587,19.8367 C249.9587,18.8667 249.8347,18.1617 249.5847,17.7237 C249.3327,17.2837 248.9107,17.0657 248.3167,17.0657 C247.3997,17.0657 246.4867,17.5687 245.5797,18.5767 L245.5797,24.2057 C245.5797,24.9257 245.6197,25.3687 245.7037,25.5387 C245.8127,25.7637 245.9647,25.9257 246.1527,26.0307 C246.3447,26.1347 246.7317,26.1867 247.3157,26.1867 L247.3157,26.6087 L242.0227,26.6087 L242.0227,26.1867 L242.2557,26.1867 C242.7987,26.1867 243.1677,26.0497 243.3587,25.7767 C243.5497,25.5017 243.6447,24.9787 243.6447,24.2057 L243.6447,20.2297 C243.6447,18.9567 243.6157,18.1787 243.5567,17.9017 C243.5017,17.6217 243.4117,17.4347 243.2907,17.3337 C243.1707,17.2327 243.0127,17.1827 242.8117,17.1827 C242.5937,17.1827 242.3347,17.2407 242.0337,17.3567 L241.8587,16.9347 L245.0757,15.6367 L245.5797,15.6367 L245.5797,17.8917 Z M72.0909,32.4488 L72.0909,38.6668 L74.9639,38.6668 C75.6189,38.6668 76.0989,38.5178 76.4019,38.2268 C76.7069,37.9348 76.9089,37.3628 77.0089,36.5058 L77.4469,36.5058 L77.4469,41.8288 L77.0089,41.8288 C77.0009,41.2188 76.9219,40.7688 76.7729,40.4818 C76.6219,40.1958 76.4139,39.9808 76.1479,39.8388 C75.8829,39.6938 75.4869,39.6228 74.9639,39.6228 L72.0909,39.6228 L72.0909,44.5718 C72.0909,45.3698 72.1409,45.8968 72.2409,46.1508 C72.3179,46.3438 72.4799,46.5098 72.7279,46.6498 C73.0689,46.8348 73.4249,46.9268 73.7949,46.9268 L74.3629,46.9268 L74.3629,47.3658 L67.5939,47.3658 L67.5939,46.9268 L68.1529,46.9268 C68.8039,46.9268 69.2779,46.7398 69.5709,46.3598 C69.7569,46.1108 69.8509,45.5148 69.8509,44.5718 L69.8509,34.3798 C69.8509,33.5828 69.7999,33.0578 69.6999,32.8018 C69.6229,32.6078 69.4619,32.4428 69.2219,32.3038 C68.8889,32.1188 68.5329,32.0258 68.1529,32.0258 L67.5939,32.0258 L67.5939,31.5878 L79.3139,31.5878 L79.4769,35.0448 L79.0699,35.0448 C78.8679,34.3098 78.6329,33.7728 78.3649,33.4278 C78.0969,33.0838 77.7669,32.8348 77.3759,32.6808 C76.9859,32.5248 76.3799,32.4488 75.5609,32.4488 L72.0909,32.4488 Z M82.86,30.8257 C83.185,30.8257 83.461,30.9397 83.689,31.1667 C83.917,31.3957 84.032,31.6707 84.032,31.9967 C84.032,32.3197 83.917,32.5997 83.689,32.8307 C83.461,33.0627 83.185,33.1777 82.86,33.1777 C82.535,33.1777 82.257,33.0627 82.026,32.8307 C81.794,32.5997 81.678,32.3197 81.678,31.9967 C81.678,31.6707 81.792,31.3957 82.02,31.1667 C82.248,30.9397 82.528,30.8257 82.86,30.8257 Z M83.82,36.3927 L83.82,44.9637 C83.82,45.6287 83.869,46.0687 83.967,46.2877 C84.064,46.5087 84.207,46.6737 84.399,46.7807 C84.588,46.8887 84.937,46.9417 85.444,46.9417 L85.444,47.3657 L80.266,47.3657 L80.266,46.9417 C80.783,46.9417 81.131,46.8957 81.309,46.7937 C81.487,46.6937 81.627,46.5257 81.732,46.2957 C81.837,46.0637 81.889,45.6197 81.889,44.9637 L81.889,40.8407 C81.889,39.6877 81.854,38.9417 81.784,38.6017 C81.731,38.3517 81.646,38.1807 81.53,38.0827 C81.414,37.9877 81.255,37.9377 81.054,37.9377 C80.837,37.9377 80.575,37.9977 80.266,38.1137 L80.103,37.6897 L83.31,36.3927 L83.82,36.3927 Z M89.8829,38.6473 C91.1289,37.1453 92.3169,36.3933 93.4469,36.3933 C94.0269,36.3933 94.5259,36.5393 94.9429,36.8293 C95.3609,37.1213 95.6939,37.6013 95.9419,38.2663 C96.1119,38.7323 96.1959,39.4463 96.1959,40.4093 L96.1959,44.9633 C96.1959,45.6343 96.2509,46.0913 96.3599,46.3293 C96.4449,46.5223 96.5819,46.6743 96.7709,46.7803 C96.9609,46.8893 97.3099,46.9413 97.8209,46.9413 L97.8209,47.3653 L92.5449,47.3653 L92.5449,46.9413 L92.7659,46.9413 C93.2619,46.9413 93.6089,46.8693 93.8049,46.7183 C94.0039,46.5643 94.1409,46.3443 94.2189,46.0523 C94.2499,45.9363 94.2659,45.5733 94.2659,44.9633 L94.2659,40.5923 C94.2659,39.6233 94.1399,38.9173 93.8899,38.4803 C93.6399,38.0423 93.2169,37.8223 92.6229,37.8223 C91.7049,37.8223 90.7939,38.3253 89.8829,39.3333 L89.8829,44.9633 C89.8829,45.6803 89.9259,46.1253 90.0109,46.2953 C90.1199,46.5193 90.2689,46.6823 90.4599,46.7873 C90.6499,46.8923 91.0369,46.9413 91.6199,46.9413 L91.6199,47.3653 L86.3289,47.3653 L86.3289,46.9413 L86.5619,46.9413 C87.1069,46.9413 87.4749,46.8073 87.6649,46.5323 C87.8559,46.2603 87.9519,45.7353 87.9519,44.9633 L87.9519,40.9863 C87.9519,39.7133 87.9219,38.9373 87.8649,38.6573 C87.8059,38.3793 87.7169,38.1913 87.5979,38.0893 C87.4779,37.9893 87.3179,37.9383 87.1159,37.9383 C86.8999,37.9383 86.6409,37.9973 86.3399,38.1133 L86.1659,37.6903 L89.3819,36.3933 L89.8829,36.3933 L89.8829,38.6473 Z M104.6919,45.8365 C103.5959,46.6805 102.9089,47.1705 102.6289,47.3035 C102.2099,47.4965 101.7629,47.5945 101.2909,47.5945 C100.5519,47.5945 99.9439,47.3415 99.4659,46.8355 C98.9889,46.3295 98.7499,45.6635 98.7499,44.8405 C98.7499,44.3175 98.8669,43.8665 99.1009,43.4855 C99.4189,42.9545 99.9719,42.4585 100.7599,41.9915 C101.5489,41.5255 102.8589,40.9565 104.6919,40.2885 L104.6919,39.8715 C104.6919,38.8135 104.5219,38.0895 104.1859,37.6975 C103.8489,37.3035 103.3599,37.1065 102.7169,37.1065 C102.2289,37.1065 101.8419,37.2395 101.5539,37.5015 C101.2599,37.7645 101.1129,38.0655 101.1129,38.4055 L101.1359,39.0775 C101.1359,39.4335 101.0449,39.7065 100.8619,39.9005 C100.6779,40.0935 100.4369,40.1915 100.1399,40.1915 C99.8509,40.1915 99.6159,40.0915 99.4309,39.8885 C99.2469,39.6875 99.1559,39.4125 99.1559,39.0635 C99.1559,38.3975 99.4979,37.7855 100.1799,37.2265 C100.8629,36.6715 101.8219,36.3935 103.0559,36.3935 C104.0019,36.3935 104.7799,36.5505 105.3839,36.8685 C105.8419,37.1105 106.1789,37.4885 106.3979,38.0005 C106.5359,38.3325 106.6059,39.0175 106.6059,40.0485 L106.6059,43.6715 C106.6059,44.6865 106.6269,45.3115 106.6649,45.5395 C106.7019,45.7695 106.7669,45.9225 106.8559,45.9995 C106.9449,46.0765 107.0469,46.1155 107.1619,46.1155 C107.2859,46.1155 107.3939,46.0895 107.4869,46.0335 C107.6489,45.9355 107.9619,45.6535 108.4239,45.1915 L108.4239,45.8385 C107.5589,46.9975 106.7329,47.5765 105.9439,47.5765 C105.5649,47.5765 105.2639,47.4435 105.0389,47.1835 C104.8159,46.9195 104.6979,46.4715 104.6919,45.8365 Z M104.6919,45.0785 L104.6919,41.0035 C103.5169,41.4695 102.7569,41.8005 102.4139,41.9935 C101.8009,42.3375 101.3609,42.6935 101.0949,43.0685 C100.8289,43.4445 100.6979,43.8495 100.6979,44.2965 C100.6979,44.8555 100.8649,45.3225 101.2009,45.6905 C101.5359,46.0605 101.9199,46.2445 102.3569,46.2445 C102.9469,46.2445 103.7259,45.8565 104.6919,45.0785 Z M112.3521,38.6473 C113.5991,37.1453 114.7851,36.3933 115.9151,36.3933 C116.4971,36.3933 116.9951,36.5393 117.4121,36.8293 C117.8311,37.1213 118.1651,37.6013 118.4101,38.2663 C118.5801,38.7323 118.6661,39.4463 118.6661,40.4093 L118.6661,44.9633 C118.6661,45.6343 118.7201,46.0913 118.8291,46.3293 C118.9141,46.5223 119.0501,46.6743 119.2411,46.7803 C119.4301,46.8893 119.7791,46.9413 120.2891,46.9413 L120.2891,47.3653 L115.0141,47.3653 L115.0141,46.9413 L115.2351,46.9413 C115.7311,46.9413 116.0781,46.8693 116.2741,46.7183 C116.4731,46.5643 116.6111,46.3443 116.6881,46.0523 C116.7201,45.9363 116.7361,45.5733 116.7361,44.9633 L116.7361,40.5923 C116.7361,39.6233 116.6081,38.9173 116.3591,38.4803 C116.1081,38.0423 115.6861,37.8223 115.0921,37.8223 C114.1761,37.8223 113.2611,38.3253 112.3521,39.3333 L112.3521,44.9633 C112.3521,45.6803 112.3941,46.1253 112.4801,46.2953 C112.5881,46.5193 112.7381,46.6823 112.9291,46.7873 C113.1191,46.8923 113.5061,46.9413 114.0881,46.9413 L114.0881,47.3653 L108.7961,47.3653 L108.7961,46.9413 L109.0301,46.9413 C109.5761,46.9413 109.9421,46.8073 110.1341,46.5323 C110.3261,46.2603 110.4201,45.7353 110.4201,44.9633 L110.4201,40.9863 C110.4201,39.7133 110.3921,38.9373 110.3341,38.6573 C110.2761,38.3793 110.1851,38.1913 110.0671,38.0893 C109.9461,37.9893 109.7861,37.9383 109.5861,37.9383 C109.3691,37.9383 109.1091,37.9973 108.8091,38.1133 L108.6351,37.6903 L111.8511,36.3933 L112.3521,36.3933 L112.3521,38.6473 Z M130.1959,43.3072 C129.9089,44.7182 129.3479,45.8012 128.5099,46.5572 C127.6719,47.3122 126.7449,47.6892 125.7309,47.6892 C124.5209,47.6892 123.4669,47.1822 122.5679,46.1672 C121.6679,45.1502 121.2199,43.7772 121.2199,42.0492 C121.2199,40.3712 121.7179,39.0112 122.7109,37.9632 C123.7059,36.9162 124.9029,36.3932 126.2969,36.3932 C127.3429,36.3932 128.2039,36.6682 128.8769,37.2232 C129.5499,37.7772 129.8879,38.3502 129.8879,38.9452 C129.8879,39.2402 129.7929,39.4762 129.6029,39.6602 C129.4129,39.8422 129.1479,39.9302 128.8069,39.9302 C128.3499,39.9302 128.0069,39.7842 127.7799,39.4922 C127.6429,39.3272 127.5539,39.0192 127.5109,38.5632 C127.4689,38.1072 127.3109,37.7572 127.0419,37.5202 C126.7699,37.2872 126.3939,37.1712 125.9139,37.1712 C125.1399,37.1712 124.5149,37.4602 124.0429,38.0332 C123.4159,38.7912 123.1029,39.7972 123.1029,41.0452 C123.1029,42.3182 123.4129,43.4392 124.0379,44.4112 C124.6629,45.3852 125.5039,45.8742 126.5659,45.8742 C127.3239,45.8742 128.0069,45.6142 128.6119,45.0982 C129.0369,44.7402 129.4509,44.0902 129.8559,43.1432 L130.1959,43.3072 Z M134.4139,30.8257 C134.7389,30.8257 135.0149,30.9397 135.2409,31.1667 C135.4689,31.3957 135.5849,31.6707 135.5849,31.9967 C135.5849,32.3197 135.4689,32.5997 135.2409,32.8307 C135.0149,33.0627 134.7389,33.1777 134.4139,33.1777 C134.0889,33.1777 133.8089,33.0627 133.5799,32.8307 C133.3459,32.5997 133.2299,32.3197 133.2299,31.9967 C133.2299,31.6707 133.3439,31.3957 133.5729,31.1667 C133.8009,30.9397 134.0789,30.8257 134.4139,30.8257 Z M135.3739,36.3927 L135.3739,44.9637 C135.3739,45.6287 135.4209,46.0687 135.5199,46.2877 C135.6159,46.5087 135.7609,46.6737 135.9519,46.7807 C136.1429,46.8887 136.4899,46.9417 136.9969,46.9417 L136.9969,47.3657 L131.8169,47.3657 L131.8169,46.9417 C132.3359,46.9417 132.6839,46.8957 132.8629,46.7937 C133.0399,46.6937 133.1809,46.5257 133.2859,46.2957 C133.3889,46.0637 133.4409,45.6197 133.4409,44.9637 L133.4409,40.8407 C133.4409,39.6877 133.4079,38.9417 133.3379,38.6017 C133.2829,38.3517 133.1979,38.1807 133.0819,38.0827 C132.9659,37.9877 132.8069,37.9377 132.6069,37.9377 C132.3899,37.9377 132.1269,37.9977 131.8169,38.1137 L131.6559,37.6897 L134.8629,36.3927 L135.3739,36.3927 Z M144.3396,45.8365 C143.2456,46.6805 142.5576,47.1705 142.2796,47.3035 C141.8576,47.4965 141.4136,47.5945 140.9376,47.5945 C140.2016,47.5945 139.5926,47.3415 139.1156,46.8355 C138.6366,46.3295 138.3996,45.6635 138.3996,44.8405 C138.3996,44.3175 138.5166,43.8665 138.7476,43.4855 C139.0666,42.9545 139.6216,42.4585 140.4086,41.9915 C141.1976,41.5255 142.5076,40.9565 144.3396,40.2885 L144.3396,39.8715 C144.3396,38.8135 144.1696,38.0895 143.8356,37.6975 C143.4986,37.3035 143.0086,37.1065 142.3656,37.1065 C141.8776,37.1065 141.4906,37.2395 141.2026,37.5015 C140.9096,37.7645 140.7626,38.0655 140.7626,38.4055 L140.7856,39.0775 C140.7856,39.4335 140.6926,39.7065 140.5106,39.9005 C140.3266,40.0935 140.0876,40.1915 139.7896,40.1915 C139.4996,40.1915 139.2636,40.0915 139.0796,39.8885 C138.8986,39.6875 138.8056,39.4125 138.8056,39.0635 C138.8056,38.3975 139.1456,37.7855 139.8306,37.2265 C140.5126,36.6715 141.4706,36.3935 142.7046,36.3935 C143.6516,36.3935 144.4266,36.5505 145.0336,36.8685 C145.4906,37.1105 145.8296,37.4885 146.0466,38.0005 C146.1856,38.3325 146.2556,39.0175 146.2556,40.0485 L146.2556,43.6715 C146.2556,44.6865 146.2756,45.3115 146.3146,45.5395 C146.3516,45.7695 146.4166,45.9225 146.5036,45.9995 C146.5946,46.0765 146.6946,46.1155 146.8126,46.1155 C146.9346,46.1155 147.0436,46.0895 147.1356,46.0335 C147.2986,45.9355 147.6116,45.6535 148.0736,45.1915 L148.0736,45.8385 C147.2066,46.9975 146.3806,47.5765 145.5936,47.5765 C145.2146,47.5765 144.9126,47.4435 144.6896,47.1835 C144.4646,46.9195 144.3476,46.4715 144.3396,45.8365 Z M144.3396,45.0785 L144.3396,41.0035 C143.1646,41.4695 142.4056,41.8005 142.0646,41.9935 C141.4466,42.3375 141.0086,42.6935 140.7456,43.0685 C140.4786,43.4445 140.3476,43.8495 140.3476,44.2965 C140.3476,44.8555 140.5146,45.3225 140.8486,45.6905 C141.1836,46.0605 141.5686,46.2445 142.0046,46.2445 C142.5966,46.2445 143.3746,45.8565 144.3396,45.0785 Z M152.5524,30.8257 L152.5524,44.9637 C152.5524,45.6287 152.6004,46.0667 152.6994,46.2857 C152.7964,46.4987 152.9444,46.6627 153.1454,46.7757 C153.3474,46.8877 153.7224,46.9417 154.2734,46.9417 L154.2734,47.3657 L149.0474,47.3657 L149.0474,46.9417 C149.5374,46.9417 149.8704,46.8957 150.0494,46.7937 C150.2294,46.6937 150.3674,46.5257 150.4684,46.2957 C150.5714,46.0637 150.6194,45.6197 150.6194,44.9637 L150.6194,35.2727 C150.6194,34.0777 150.5934,33.3437 150.5384,33.0707 C150.4854,32.7987 150.3984,32.6097 150.2774,32.5097 C150.1584,32.4097 150.0044,32.3597 149.8194,32.3597 C149.6164,32.3597 149.3604,32.4217 149.0494,32.5467 L148.8524,32.1217 L152.0304,30.8257 L152.5524,30.8257 Z M175.3272,31.2299 L175.7332,36.2139 L175.3272,36.2139 C174.9182,34.9779 174.3852,34.0429 173.7322,33.4189 C172.7942,32.5099 171.5862,32.0589 170.1122,32.0589 C168.1012,32.0589 166.5722,32.8529 165.5252,34.4399 C164.6472,35.7799 164.2082,37.3749 164.2082,39.2259 C164.2082,40.7289 164.5012,42.0999 165.0822,43.3379 C165.6642,44.5769 166.4272,45.4849 167.3672,46.0639 C168.3112,46.6399 169.2772,46.9269 170.2702,46.9269 C170.8532,46.9269 171.4132,46.8549 171.9562,46.7069 C172.4982,46.5589 173.0222,46.3429 173.5262,46.0559 L173.5262,41.5059 C173.5262,40.7139 173.4662,40.1959 173.3462,39.9529 C173.2262,39.7069 173.0372,39.5199 172.7842,39.3929 C172.5322,39.2659 172.0862,39.2009 171.4472,39.2009 L171.4472,38.7629 L177.5682,38.7629 L177.5682,39.2009 L177.2792,39.2009 C176.6732,39.2009 176.2582,39.4039 176.0322,39.8069 C175.8762,40.0929 175.7992,40.6609 175.7992,41.5059 L175.7992,46.3279 C174.9072,46.8089 174.0292,47.1609 173.1602,47.3859 C172.2922,47.6089 171.3302,47.7229 170.2652,47.7229 C167.2202,47.7229 164.9072,46.7449 163.3272,44.7909 C162.1392,43.3269 161.5462,41.6369 161.5462,39.7209 C161.5462,38.3329 161.8802,37.0029 162.5452,35.7329 C163.3382,34.2199 164.4232,33.0569 165.8002,32.2409 C166.9552,31.5679 168.3212,31.2299 169.8912,31.2299 C170.4672,31.2299 170.9872,31.2779 171.4572,31.3719 C171.9232,31.4649 172.5862,31.6709 173.4492,31.9909 C173.8822,32.1549 174.1722,32.2379 174.3202,32.2379 C174.4672,32.2379 174.5922,32.1689 174.6982,32.0319 C174.8022,31.8969 174.8662,31.6279 174.8912,31.2299 L175.3272,31.2299 Z M181.7744,36.393 L181.7744,38.787 C182.6614,37.19 183.5734,36.393 184.5074,36.393 C184.9334,36.393 185.2844,36.522 185.5604,36.782 C185.8404,37.041 185.9784,37.343 185.9784,37.682 C185.9784,37.985 185.8794,38.239 185.6794,38.448 C185.4774,38.657 185.2394,38.763 184.9594,38.763 C184.6924,38.763 184.3884,38.63 184.0534,38.365 C183.7154,38.101 183.4674,37.967 183.3034,37.967 C183.1664,37.967 183.0164,38.044 182.8534,38.199 C182.5054,38.516 182.1434,39.039 181.7744,39.764 L181.7744,44.881 C181.7744,45.47 181.8484,45.914 181.9954,46.214 C182.0964,46.423 182.2754,46.597 182.5324,46.736 C182.7894,46.875 183.1584,46.941 183.6414,46.941 L183.6414,47.366 L178.1704,47.366 L178.1704,46.941 C178.7134,46.941 179.1164,46.858 179.3764,46.687 C179.5714,46.563 179.7074,46.364 179.7854,46.095 C179.8214,45.962 179.8434,45.585 179.8434,44.963 L179.8434,40.825 C179.8434,39.589 179.8184,38.853 179.7664,38.616 C179.7174,38.381 179.6254,38.21 179.4884,38.102 C179.3534,37.993 179.1864,37.938 178.9854,37.938 C178.7444,37.938 178.4744,37.998 178.1744,38.114 L178.0564,37.69 L181.2854,36.393 L181.7744,36.393 Z M191.7679,36.3926 C193.3799,36.3926 194.6749,37.0066 195.6499,38.2306 C196.4789,39.2786 196.8939,40.4806 196.8939,41.8366 C196.8939,42.7916 196.6649,43.7576 196.2069,44.7356 C195.7489,45.7126 195.1199,46.4516 194.3199,46.9446 C193.5189,47.4426 192.6259,47.6896 191.6399,47.6896 C190.0369,47.6896 188.7599,47.0506 187.8139,45.7706 C187.0169,44.6946 186.6179,43.4836 186.6179,42.1386 C186.6179,41.1636 186.8589,40.1916 187.3449,39.2256 C187.8289,38.2596 188.4669,37.5456 189.2569,37.0856 C190.0479,36.6236 190.8839,36.3926 191.7679,36.3926 Z M191.4059,37.1546 C190.9949,37.1546 190.5819,37.2776 190.1679,37.5236 C189.7539,37.7676 189.4169,38.1936 189.1609,38.8056 C188.9049,39.4186 188.7779,40.2056 188.7779,41.1646 C188.7779,42.7166 189.0849,44.0536 189.7029,45.1766 C190.3169,46.2986 191.1309,46.8626 192.1389,46.8626 C192.8919,46.8626 193.5119,46.5526 194.0009,45.9306 C194.4899,45.3126 194.7329,44.2486 194.7329,42.7376 C194.7329,40.8446 194.3269,39.3556 193.5119,38.2696 C192.9619,37.5286 192.2599,37.1546 191.4059,37.1546 Z M207.8051,36.7006 L207.8051,43.1766 C207.8051,44.4066 207.8341,45.1566 207.8941,45.4306 C207.9531,45.7036 208.0451,45.8966 208.1721,46.0056 C208.2991,46.1136 208.4471,46.1666 208.6181,46.1666 C208.8591,46.1666 209.1291,46.1026 209.4301,45.9706 L209.5911,46.3926 L206.4131,47.6896 L205.8901,47.6896 L205.8901,45.4346 C204.9731,46.4266 204.2761,47.0516 203.7941,47.3066 C203.3131,47.5626 202.8051,47.6896 202.2691,47.6896 C201.6721,47.6896 201.1521,47.5186 200.7141,47.1746 C200.2751,46.8296 199.9721,46.3826 199.8001,45.8406 C199.6291,45.2966 199.5431,44.5306 199.5431,43.5366 L199.5431,38.7796 C199.5431,38.2696 199.4891,37.9186 199.3801,37.7226 C199.2731,37.5246 199.1131,37.3756 198.8981,37.2686 C198.6851,37.1646 198.3001,37.1136 197.7421,37.1236 L197.7421,36.7006 L201.4771,36.7006 L201.4771,43.8396 C201.4771,44.8336 201.6481,45.4846 201.9941,45.7966 C202.3391,46.1066 202.7581,46.2616 203.2461,46.2616 C203.5811,46.2616 203.9601,46.1556 204.3821,45.9476 C204.8051,45.7366 205.3091,45.3396 205.8901,44.7496 L205.8901,38.6976 C205.8901,38.0906 205.7781,37.6816 205.5551,37.4676 C205.3331,37.2526 204.8741,37.1396 204.1701,37.1236 L204.1701,36.7006 L207.8051,36.7006 Z M209.6109,37.7727 L212.8889,36.4417 L213.3289,36.4417 L213.3289,38.9287 C213.8789,37.9897 214.4299,37.3347 214.9849,36.9577 C215.5379,36.5817 216.1189,36.3927 216.7339,36.3927 C217.7999,36.3927 218.6909,36.8117 219.4039,37.6487 C220.2769,38.6727 220.7159,40.0067 220.7159,41.6517 C220.7159,43.4907 220.1879,45.0097 219.1369,46.2117 C218.2689,47.1977 217.1799,47.6897 215.8619,47.6897 C215.2889,47.6897 214.7919,47.6087 214.3749,47.4447 C214.0659,47.3307 213.7179,47.0987 213.3289,46.7467 L213.3289,49.9957 C213.3289,50.7267 213.3729,51.1937 213.4629,51.3927 C213.5539,51.5897 213.7079,51.7467 213.9289,51.8657 C214.1489,51.9817 214.5489,52.0407 215.1299,52.0407 L215.1299,52.4627 L209.5469,52.4627 L209.5469,52.0407 L209.8399,52.0407 C210.2659,52.0487 210.6289,51.9667 210.9339,51.7967 C211.0799,51.7107 211.1949,51.5717 211.2769,51.3817 C211.3569,51.1897 211.3979,50.7067 211.3979,49.9297 L211.3979,39.8487 C211.3979,39.1607 211.3669,38.7257 211.3069,38.5387 C211.2429,38.3547 211.1449,38.2147 211.0089,38.1247 C210.8729,38.0297 210.6909,37.9827 210.4589,37.9827 C210.2739,37.9827 210.0369,38.0377 209.7529,38.1457 L209.6109,37.7727 Z M213.3289,39.6167 L213.3289,43.5937 C213.3289,44.4557 213.3649,45.0207 213.4349,45.2947 C213.5419,45.7437 213.8079,46.1397 214.2279,46.4807 C214.6499,46.8217 215.1789,46.9937 215.8219,46.9937 C216.5939,46.9937 217.2189,46.6907 217.6979,46.0847 C218.3259,45.2947 218.6369,44.1827 218.6369,42.7487 C218.6369,41.1167 218.2829,39.8657 217.5709,38.9877 C217.0769,38.3837 216.4899,38.0797 215.8099,38.0797 C215.4379,38.0797 215.0719,38.1727 214.7099,38.3587 C214.4299,38.5007 213.9689,38.9197 213.3289,39.6167 Z"></path>
                    </g>
                </g>
            </g>
        </g>
    </g>
</svg>